<svg xmlns="http://www.w3.org/2000/svg" viewBox="33 196.66500000000002 367.13999938964844 215">
    <svg xmlns="http://www.w3.org/2000/svg" xmlns:xlink="http://www.w3.org/1999/xlink" viewBox="0 0 131.25 131.25" height="75" width="75" y="266.665" x="103" preserveAspectRatio="xMinYMin" style="overflow: visible;">
        <linearGradient id="Sfumatura_senza_nome_7" x1="90.23" y1="145.92" x2="103.56" y2="61.23" gradientTransform="translate(-4.15 -2.46)" gradientUnits="userSpaceOnUse" style="">
            <stop offset="0" stop-color="#ffc166"></stop>
            <stop offset="1" stop-color="#f96"></stop>
        </linearGradient>
        <linearGradient id="Sfumatura_senza_nome_35" x1="2064.74" y1="-3799.49" x2="2165.6" y2="-3931.16" gradientTransform="translate(-4147.85 1272.52) rotate(45)" gradientUnits="userSpaceOnUse" style="">
            <stop offset="0" stop-color="#5858e8"></stop>
            <stop offset="1" stop-color="#9b5efc"></stop>
        </linearGradient>
        <linearGradient id="Sfumatura_senza_nome_13" x1="1.47" y1="135.05" x2="50.72" y2="77.08" gradientUnits="userSpaceOnUse" style="">
            <stop offset="0" stop-color="#ff7854"></stop>
            <stop offset="1" stop-color="#fd267d"></stop>
        </linearGradient>
        <polygon id="Livello_1-2" dataName="Livello 1" class="cls-1" points="131.25 65.9 65.9 131.25 65.83 62.73 131.23 65.35 131.25 65.9" style="fill: url(#Sfumatura_senza_nome_7);"></polygon>
        <polygon id="Livello_1-2" dataName="Livello 1" class="cls-2" points="131.23 65.35 68.2 65.35 0 65.35 65.35 0 131.18 0.07 131.23 65.35" style="fill: url(#Sfumatura_senza_nome_35);"></polygon>
        <polygon id="Livello_1-2" dataName="Livello 1" class="cls-3" points="48.32 117.14 2.76 128.49 14.11 82.94 48.32 82.94 48.32 117.14" style="fill: url(#Sfumatura_senza_nome_13);"></polygon>
    </svg>
    <svg x="202" y="287.11999839782715" viewBox="2.9700000286102295 11.4399995803833 128.13999938964844 34.10000228881836" height="34.10000228881836" width="128.13999938964844" style="overflow: visible;">
        <g fill="#fff" fill-opacity="1" style="">
            <path d="M24.85 24.42Q24.85 26.83 23.71 28.94Q22.58 31.05 20.15 32.34Q17.72 33.63 14.02 33.63L14.02 33.63L8.99 33.63L8.99 45.15L2.97 45.15L2.97 15.14L14.02 15.14Q17.50 15.14 19.95 16.34Q22.40 17.54 23.63 19.65Q24.85 21.76 24.85 24.42L24.85 24.42ZM13.76 28.77Q16.25 28.77 17.46 27.63Q18.66 26.49 18.66 24.42L18.66 24.42Q18.66 20.04 13.76 20.04L13.76 20.04L8.99 20.04L8.99 28.77L13.76 28.77ZM51.26 32.72Q51.26 34.01 51.08 35.05L51.08 35.05L33.67 35.05Q33.88 37.63 35.48 39.09Q37.07 40.55 39.39 40.55L39.39 40.55Q42.74 40.55 44.16 37.67L44.16 37.67L50.65 37.67Q49.62 41.11 46.70 43.32Q43.77 45.54 39.52 45.54L39.52 45.54Q36.08 45.54 33.35 44.01Q30.62 42.48 29.09 39.69Q27.56 36.89 27.56 33.24L27.56 33.24Q27.56 29.54 29.07 26.75Q30.57 23.95 33.28 22.45Q35.99 20.94 39.52 20.94L39.52 20.94Q42.91 20.94 45.60 22.40Q48.29 23.87 49.77 26.55Q51.26 29.24 51.26 32.72L51.26 32.72ZM33.71 31.00L45.02 31.00Q44.98 28.68 43.34 27.28Q41.71 25.89 39.34 25.89L39.34 25.89Q37.11 25.89 35.58 27.24Q34.06 28.60 33.71 31.00L33.71 31.00ZM61.66 25.03Q62.82 23.13 64.69 22.06Q66.56 20.98 68.97 20.98L68.97 20.98L68.97 27.31L67.38 27.31Q64.54 27.31 63.10 28.64Q61.66 29.97 61.66 33.28L61.66 33.28L61.66 45.15L55.64 45.15L55.64 21.33L61.66 21.33L61.66 25.03ZM76.07 18.49Q74.48 18.49 73.42 17.48Q72.37 16.47 72.37 14.96L72.37 14.96Q72.37 13.46 73.42 12.45Q74.48 11.44 76.07 11.44L76.07 11.44Q77.66 11.44 78.71 12.45Q79.77 13.46 79.77 14.96L79.77 14.96Q79.77 16.47 78.71 17.48Q77.66 18.49 76.07 18.49L76.07 18.49ZM73.01 21.33L79.03 21.33L79.03 45.15L73.01 45.15L73.01 21.33ZM94.08 45.54Q91.16 45.54 88.84 44.48Q86.52 43.43 85.16 41.62Q83.81 39.82 83.68 37.63L83.68 37.63L89.74 37.63Q89.91 39.00 91.10 39.90Q92.28 40.81 94.04 40.81L94.04 40.81Q95.76 40.81 96.73 40.12Q97.70 39.43 97.70 38.36L97.70 38.36Q97.70 37.20 96.51 36.61Q95.33 36.03 92.75 35.35L92.75 35.35Q90.09 34.70 88.39 34.01Q86.69 33.33 85.46 31.91Q84.24 30.49 84.24 28.08L84.24 28.08Q84.24 26.10 85.38 24.47Q86.52 22.83 88.64 21.89Q90.77 20.94 93.65 20.94L93.65 20.94Q97.91 20.94 100.45 23.07Q102.99 25.20 103.24 28.81L103.24 28.81L97.48 28.81Q97.35 27.39 96.30 26.55Q95.25 25.71 93.48 25.71L93.48 25.71Q91.85 25.71 90.97 26.32Q90.09 26.92 90.09 27.99L90.09 27.99Q90.09 29.20 91.29 29.82Q92.49 30.44 95.03 31.09L95.03 31.09Q97.61 31.73 99.29 32.42Q100.96 33.11 102.19 34.55Q103.42 35.99 103.46 38.36L103.46 38.36Q103.46 40.42 102.32 42.05Q101.18 43.69 99.05 44.61Q96.92 45.54 94.08 45.54L94.08 45.54ZM121.82 20.98Q124.53 20.98 126.64 22.17Q128.74 23.35 129.92 25.65Q131.11 27.95 131.11 31.18L131.11 31.18L131.11 45.15L125.09 45.15L125.09 31.99Q125.09 29.15 123.67 27.63Q122.25 26.10 119.80 26.10L119.80 26.10Q117.30 26.10 115.86 27.63Q114.42 29.15 114.42 31.99L114.42 31.99L114.42 45.15L108.40 45.15L108.40 13.33L114.42 13.33L114.42 24.30Q115.58 22.75 117.52 21.87Q119.45 20.98 121.82 20.98L121.82 20.98Z" transform="translate(0, 0)"></path>
        </g>
    </svg>
</svg>